<?xml version="1.0" encoding="utf-8"?>
<!-- Generator: Adobe Illustrator 24.0.3, SVG Export Plug-In . SVG Version: 6.00 Build 0)  -->
<svg version="1.1" id="Calque_1" xmlns="http://www.w3.org/2000/svg" xmlns:xlink="http://www.w3.org/1999/xlink" x="0px" y="0px"
	 viewBox="0 0 637.6 188.5" style="enable-background:new 0 0 637.6 188.5;" xml:space="preserve">
<style type="text/css">
	.st0{fill:#FFFFFF;}
</style>
<path d="M496.5,6.4c7.7,0,15.6-2.3,20.7,0.5c7.7,4.2,13.7,11.7,19.6,18.5c1.7,1.9,0.5,6.4,0.5,9.8c0,45.2,0,90.3,0,135.5
	c0,1.1,0,2.3,0,4.2c-4.6-0.4-8.6-0.8-12.7-1c-17.4-0.8-34.9-1.4-52.3-2.3c-1.9-0.1-4.1-0.6-5.5-1.7c-5.2-4.2-10.2-8.6-14.9-13.3
	c-1.2-1.2-1.7-3.5-1.7-5.3c-0.1-16.2-0.1-32.3-0.1-48.5c0-31.7,0.1-63.3-0.1-95c0-4.1,1.4-4.9,5.4-5.5c12.8-1.7,22.8,1.9,30.7,12.4
	c2.7,3.5,4.9,6.2,4.9,11.1c-0.2,33.5,0,67,0.1,100.5c0,1.8,0,3.6,0,5.8c1.8,0.2,3.2,0.4,5.3,0.7C496.5,90.6,496.5,48.9,496.5,6.4z
	 M516.2,152.8c0-47.2,0-94.6,0-142.1c-5.1,0-9.9,0-15.3,0c0,43,0,85.7,0,128.1c-10.7,0-20.6,0-31,0c0-44.1,0-87.5,0-130.9
	c-5.4,0-10.3,0-15.2,0c0,48.4,0,96.3,0,145C475.3,152.8,495.5,152.8,516.2,152.8z"/>
<path d="M2.7,2.4c10.1,0,19.9-0.2,29.7,0.1c1.7,0.1,3.6,1.8,5.1,3.2c2.8,2.6,5.3,5.5,8,8.2c0.4-0.2,0.9-0.5,1.3-0.7
	c0.2-3.4,0.4-6.8,0.6-10.9c7.4,0,14.9,0,22.3,0.1c0.8,0,1.8,0.8,2.5,1.4c1.1,1,2,2.3,3.2,3.1c11,7.2,13.3,17.4,13.1,30.2
	c-0.8,43.3-0.4,86.7-0.4,130c0,1.6-0.2,3.3-0.2,5.2c-10.1,1-19.8,2.1-29.5,2.7c-1.8,0.1-3.9-1.4-5.6-2.6c-3.8-2.8-7.3-5.9-10.9-8.8
	c-0.4,0.3-0.8,0.6-1.3,0.9c0,4.1,0,8.1,0,12.6c-6.3,0.9-12.2,1.8-18,2.4c-1.1,0.1-2.6-0.7-3.6-1.5c-4.9-3.7-9.8-7.5-14.4-11.5
	c-1.2-1-2.1-3-2.1-4.6c-0.1-52.5-0.1-105,0-157.5C2.3,4,2.5,3.5,2.7,2.4z M7.4,6.5c0,52,0,103.4,0,155.1c5.2-0.7,10-1.2,14.6-1.8
	c0-39.1,0-77.8,0-116.5c0.2,0,0.5-0.1,0.7-0.1c5.9,38.2,11.8,76.3,17.8,114.7c7.8-0.8,14.9-1.8,22-2.1c4.2-0.2,5.2-1.7,5.2-5.7
	c-0.1-46.2-0.1-92.4-0.1-138.6c0-1.6-0.2-3.2-0.3-4.9c-5.4,0-10.3,0-15.5,0c0,40.9,0,81.5,0,122.1c-0.3,0-0.6,0.1-0.9,0.1
	C44.7,88.1,38.5,47.4,32.2,6.5C23.6,6.5,15.7,6.5,7.4,6.5z"/>
<path d="M553.3,5.4c7.4,0,14.6-0.3,21.7,0.2c1.9,0.1,3.8,2.4,5.4,3.9c2.5,2.2,4.7,4.6,8,7.8c0.9-4.9,1.5-8.2,2.1-11.9
	c7.3,0,14.2-0.1,21.2,0.1c1.1,0,2.5,0.9,3.3,1.7c4.7,4.7,9.5,9.4,14,14.3c1.1,1.2,1.8,3.3,1.6,4.8c-3.7,21.3-7.3,42.6-11.7,63.7
	c-1.7,8.2,0.8,15.5,2.2,23c4.3,23.4,8.9,46.7,13.4,70.1c0.2,0.8,0.1,1.7,0.2,2.3c-17.2,3.6-27.6-8.7-40.6-18.2c0,5.4,0,9.3,0,13.7
	c-7.4-1.1-14.3-0.3-20.1-5.6c-5.3-4.8-11.5-8.6-16.9-13.2c-1.4-1.2-2.7-4-2.4-5.8c3.7-23.7,8.4-47.2,11.1-70.9
	c1.1-9.6-1.3-19.8-2.9-29.6C560,39.1,556.6,22.5,553.3,5.4z M611.4,163.7c-3.6-23.3-7.3-45.6-10.5-68.1c-1-7.2-2.2-14.6-1.2-21.7
	c2.4-16.8,6.1-33.4,9.2-50.1c0.9-4.7,1.6-9.4,2.5-14.3c-6,0-11.5,0-17.4,0c-2.9,18.2-5.8,36.3-8.7,54.4c-0.4,0-0.7,0-1.1,0
	c-3-18-6-36-9-54.3c-5.7,0-11.2,0-16.8,0c0.1,1.3,0,2.2,0.2,3.2c3.7,19.1,7.5,38.3,11.2,57.4c0.7,3.4,1.5,7,1,10.3
	c-1.7,12.5-4,25-6,37.5c-2.1,13.3-4.2,26.5-6.4,40.3c5.9,0.5,11.2,1,16.7,1.5c2.9-22.1,5.6-43.4,8.4-64.8c1.3,1.3,1.6,2.7,1.7,4
	c2.4,19.5,4.7,39.1,7.2,58.6c0.2,1.6,1.6,4,2.8,4.3C600.4,162.8,605.5,163.1,611.4,163.7z"/>
<path d="M172.9,166c-10.3,0.6-20.9,0.6-31.2,2c-12.4,1.8-18.2-7.8-26.2-13.7c-1.3-0.9-1.2-4.1-1.2-6.2c-0.1-44.8-0.1-89.7,0-134.5
	c0-3.5,0.5-6.9,0.8-11.2c2.6,0,5.2,0,7.7,0c9.5,0,19,0.1,28.5-0.1c3.4-0.1,6.1,0.5,8.3,3.3c1.4,1.8,3.2,3.5,5.1,4.8
	c8.4,5.7,10.2,13.7,8,23.7c-5.4,0-11.1,0-17.5,0c0,10.8-0.1,20.9,0.1,31c0,1.5,1.6,3.2,2.8,4.4c4.1,4.3,8.5,8.5,12.7,12.8
	c2.7,2.7,4.7,14.6,2.9,17.8c-0.5,0.8-2.1,1.3-3.3,1.4c-2.5,0.2-5,0.1-7.5,0.1c-2.3,0-4.6,0-7.6,0c0,9.3-0.1,18.2,0.1,27.1
	c0,1.1,1.2,2.3,2.1,3.3c2.7,3.1,5.2,6.7,8.4,9.2C174.4,147.7,174.2,156.4,172.9,166z M135,71.4c0-16.9,0-33.5,0-50.7
	c6.7,0,13.1,0,19.7,0c0-5,0-9.4,0-14.1c-11.9,0-23.5,0-35.1,0c0,48.2,0,96.1,0,144.4c12-0.8,23.6-1.6,35-2.4c0-5.1,0-9.5,0-14.1
	c-6.7,0.4-12.9,0.8-19.3,1.1c0-16.7,0-32.9,0-49.8c6.8,0,13.2,0,19.3,0c0-5.1,0-9.6,0-14.3C147.9,71.4,141.6,71.4,135,71.4z"/>
<path d="M189.8,2.6c1.9-0.1,3.6-0.2,5.2-0.2c15.8,0,31.7-0.1,47.5,0.1c2.3,0,5.1,1.3,6.8,2.9c4.4,4.3,8.4,9,12.4,13.7
	c0.9,1.1,1.7,2.6,1.7,3.9c0.2,4.3,0.1,8.6,0.1,13.4c-5.6,0-10.9,0-16.7,0c0,2.5,0,4.5,0,6.4c0,38.3-0.1,76.7,0.1,115
	c0,4.3-1.2,5.4-5.5,5.8c-11.1,1.1-20.2-1.7-28.4-9.6c-4.5-4.2-6.8-7.8-6.8-14.2c0.4-33.3,0.3-66.7,0.1-100c0-1.9-1.6-4-2.8-5.7
	c-0.8-1.2-2.3-1.9-3.4-2.9c-3.4-2.9-8.9-5.2-9.8-8.8C188.6,16.5,189.8,9.6,189.8,2.6z M211.3,20.8c0,42,0,83.3,0,124.4
	c5.3,0,10,0,15.5,0c0-41.7,0-82.9,0-124.7c6,0,11.3,0,16.7,0c0-5,0-9.4,0-13.8c-16.5,0-32.7,0-48.8,0c0,4.8,0,9.3,0,14.1
	C200.2,20.8,205.3,20.8,211.3,20.8z"/>
<path d="M344.6,101.5c-6,0-11.7,0-18.2,0c0,20.5,0,40.5,0,61.1c-7.3,0-13.9,0.4-20.5-0.2c-2.3-0.2-4.3-2.8-6.6-4.1
	c-11.5-6.2-13.8-15.8-13.5-28.5c0.9-40.3,0.3-80.7,0.3-121c0-2,0-3.9,0-6.3c13.6,0,26.7,0,39.8,0c0.9,0,2,0.4,2.7,1
	c5,4.6,10.3,9.1,14.7,14.2c1.5,1.7,1.1,5.3,1.1,8.1c0.2,8.5,0.1,8.5-8.4,8.5c-3,0-6,0-9.7,0c0,10.6-0.1,20.9,0.1,31.1
	c0,1.1,1.2,2.3,2.1,3.2c2.8,2.9,5.6,5.7,8.4,8.5C346.3,86.3,346.5,87.1,344.6,101.5z M306.4,20.8c6.6,0,13,0,19.5,0
	c0-5.2,0-9.7,0-14.1c-12,0-23.6,0-35.2,0c0,46,0,91.5,0,137.2c5.3,0,10.3,0,15.7,0c0-19.4,0-38.4,0-58c6.8,0,13.1,0,19.5,0
	c0-5.1,0-9.5,0-14.5c-6.7,0-13.1,0-19.5,0C306.4,54.3,306.4,37.9,306.4,20.8z"/>
<path d="M431,166.5c-10-0.5-19.8-0.9-29.5-1.4c-0.3,0-0.7-0.3-1-0.2c-13.6,2.3-19.6-9.2-28.3-15.7c-0.8-0.6-1.1-2.4-1.1-3.6
	c0-47,0-94.1,0-141.1c0-0.5,0.2-1,0.4-2.1c7,0,14.1-0.1,21.2,0.1c1.2,0,2.6,1.3,3.7,2.2c4.3,4,8.7,7.8,12.6,12.2
	c1.4,1.6,2.2,4.4,2.2,6.6c0.1,32.5,0.2,65,0,97.6c0,4,1.1,6.9,3.9,9.7c4.6,4.8,9.1,9.8,13.3,14.9c1.4,1.7,2.3,4.1,2.5,6.2
	C431.3,156.5,431,161.2,431,166.5z M390.9,131.5c0-42,0-83.4,0-124.8c-5.4,0-10.3,0-15.2,0c0,46.3,0,92.2,0,139.1
	c11.9,0,23.6,0,35.3,0c0-4.2,0-8.5,0-13.1C404.3,132.3,398.1,131.9,390.9,131.5z"/>
<path class="st0" d="M516.2,152.8c-20.7,0-40.9,0-61.5,0c0-48.7,0-96.7,0-145c4.9,0,9.7,0,15.2,0c0,43.4,0,86.8,0,130.9
	c10.4,0,20.3,0,31,0c0-42.3,0-85.1,0-128.1c5.5,0,10.2,0,15.3,0C516.2,58.2,516.2,105.6,516.2,152.8z"/>
<path class="st0" d="M7.4,6.5c8.3,0,16.2,0,24.7,0c6.2,40.8,12.5,81.6,18.7,122.3c0.3,0,0.6-0.1,0.9-0.1c0-40.6,0-81.2,0-122.1
	c5.2,0,10.1,0,15.5,0c0.1,1.7,0.3,3.3,0.3,4.9c0,46.2,0,92.4,0.1,138.6c0,4-1,5.5-5.2,5.7c-7.1,0.3-14.2,1.3-22,2.1
	c-5.9-38.4-11.9-76.6-17.8-114.7c-0.2,0-0.5,0.1-0.7,0.1c0,38.7,0,77.4,0,116.5c-4.7,0.6-9.4,1.2-14.6,1.8
	C7.4,109.9,7.4,58.5,7.4,6.5z"/>
<path class="st0" d="M611.4,163.7c-5.9-0.6-11-0.9-16-1.9c-1.2-0.2-2.6-2.7-2.8-4.3c-2.5-19.5-4.8-39-7.2-58.6
	c-0.2-1.4-0.5-2.7-1.7-4c-2.8,21.4-5.6,42.7-8.4,64.8c-5.5-0.5-10.9-1-16.7-1.5c2.2-13.7,4.3-27,6.4-40.3c2-12.5,4.2-25,6-37.5
	c0.5-3.3-0.4-6.9-1-10.3c-3.7-19.1-7.5-38.3-11.2-57.4c-0.2-0.9-0.1-1.9-0.2-3.2c5.6,0,11.1,0,16.8,0c3,18.2,6,36.3,9,54.3
	c0.4,0,0.7,0,1.1,0c2.9-18.1,5.8-36.1,8.7-54.4c5.9,0,11.3,0,17.4,0c-0.9,5-1.6,9.7-2.5,14.3c-3.1,16.7-6.8,33.3-9.2,50.1
	c-1,7,0.2,14.5,1.2,21.7C604.1,118.1,607.8,140.5,611.4,163.7z"/>
<path class="st0" d="M135,71.4c6.6,0,12.9,0,19.6,0c0,4.8,0,9.2,0,14.3c-6.1,0-12.5,0-19.3,0c0,16.9,0,33.1,0,49.8
	c6.4-0.4,12.6-0.7,19.3-1.1c0,4.7,0,9.1,0,14.1c-11.5,0.8-23,1.6-35,2.4c0-48.3,0-96.2,0-144.4c11.7,0,23.3,0,35.1,0
	c0,4.7,0,9.1,0,14.1c-6.6,0-13,0-19.7,0C135,37.9,135,54.5,135,71.4z"/>
<path class="st0" d="M211.3,20.8c-6,0-11.1,0-16.6,0c0-4.8,0-9.2,0-14.1c16.1,0,32.3,0,48.8,0c0,4.5,0,8.9,0,13.8
	c-5.4,0-10.6,0-16.7,0c0,41.8,0,83,0,124.7c-5.5,0-10.2,0-15.5,0C211.3,104.1,211.3,62.9,211.3,20.8z"/>
<path class="st0" d="M306.4,20.8c0,17.1,0,33.5,0,50.6c6.5,0,12.9,0,19.5,0c0,5,0,9.4,0,14.5c-6.4,0-12.8,0-19.5,0
	c0,19.6,0,38.6,0,58c-5.4,0-10.4,0-15.7,0c0-45.7,0-91.2,0-137.2c11.6,0,23.2,0,35.2,0c0,4.4,0,8.9,0,14.1
	C319.4,20.8,313,20.8,306.4,20.8z"/>
<path class="st0" d="M390.9,131.5c7.1,0.4,13.4,0.7,20.1,1.1c0,4.6,0,9,0,13.1c-11.7,0-23.4,0-35.3,0c0-46.8,0-92.7,0-139.1
	c4.9,0,9.8,0,15.2,0C390.9,48.2,390.9,89.6,390.9,131.5z"/>
</svg>
